<svg xmlns="http://www.w3.org/2000/svg" viewBox="0 0 2560 1440" width="100%" height="100%">
  <!-- YouTube Channel Banner Master (2560x1440, Safe Zone: 1546x423 in Center) -->
  <defs>
    <style>
      .yt-bg { fill: #08090d; }
      .yt-kicker { font-family: 'JetBrains Mono', monospace; font-size: 24px; font-weight: 700; fill: #818cf8; letter-spacing: 3px; }
      .yt-name { font-family: 'Inter', sans-serif; font-size: 72px; font-weight: 900; fill: #ffffff; letter-spacing: -2px; }
      .yt-title { font-family: 'Inter', sans-serif; font-size: 32px; font-weight: 500; fill: #cbd5e1; }
      .yt-sub { font-family: 'JetBrains Mono', monospace; font-size: 24px; font-weight: 500; fill: #94a3b8; }
    </style>
  </defs>

  <rect width="2560" height="1440" class="yt-bg" />

  <!-- Centered Safe Zone Content (Center: x: 1280, y: 720) -->
  <g transform="translate(600, 560)">
    <!-- Monogram Brand Mark -->
    <g transform="translate(0, 0)">
      <rect width="88" height="88" rx="20" fill="#18181b" stroke="#3f3f46" stroke-width="1.5" />
      <g transform="scale(0.6875)">
        <path fill="#ffffff" d="
          M 92,30 L 92,48 L 77,48
          C 77,40 71,34 62,34
          C 53,34 47,39 47,46
          C 47,53 53,57 63,60
          L 73,63
          C 88,68 96,75 96,89
          C 96,104 83,114 62,114
          C 42,114 28,103 28,88
          L 28,70 L 43,70
          C 43,79 50,86 62,86
          C 72,86 78,80 78,73
          C 78,66 71,62 61,59
          L 51,56
          C 36,51 29,44 29,31
          C 29,16 43,6 62,6
          C 81,6 92,16 92,30
          Z" />
      </g>
      <text x="110" y="52" class="yt-kicker">ENGINEERING &amp; ARCHITECTURE</text>
    </g>

    <text x="0" y="160" class="yt-name">Sunil Sharma (@mrxsierra)</text>
    <text x="0" y="220" class="yt-title">Full-Stack Architect • Machine Learning • Multi-RDBMS Pipelines</text>
    <text x="0" y="280" class="yt-sub">mrxsierra.github.io • Weekly Engineering Deep Dives</text>
  </g>
</svg>
