<svg xmlns="http://www.w3.org/2000/svg" viewBox="0 0 128 128" width="100%" height="100%">
  <!-- Direction 3: Bodoni / Didot Imperial 'S' (High-Contrast Architectural Publication Standard) -->
  <!-- Plain solid deep black canvas, zero borders, zero decoration -->
  <rect width="128" height="128" rx="26" fill="#000000" />

  <!-- Classical Didone High-Contrast Letterform -->
  <path fill="#ffffff" d="
    M 86,30
    C 83.5,25.5 77,22 66,22
    C 48,22 36,33 36,47
    C 36,59 47,65 62,69
    L 71,71.5
    C 85,75.5 93,82 93,93
    C 93,105 81,114 63,114
    C 48,114 37.5,107 33,96
    L 37,92
    C 41.5,102 51,108.5 63,108.5
    C 77,108.5 86,101 86,91
    C 86,81 78,76 62,72
    L 53,69.5
    C 39,66 30,59 30,47
    C 30,34 42,26 62,26
    C 72,26 80,29 84.5,33.5
    Z
    M 88,31 A 6.5,6.5 0 1,0 75,31 A 6.5,6.5 0 1,0 88,31 Z
    M 41,94 A 6.5,6.5 0 1,0 28,94 A 6.5,6.5 0 1,0 41,94 Z" />
</svg>
